<?xml version="1.0" encoding="utf-8"?>
<!-- Generator: Adobe Illustrator 19.0.0, SVG Export Plug-In . SVG Version: 6.00 Build 0)  -->
<svg version="1.1" id="Layer_1" xmlns="http://www.w3.org/2000/svg" xmlns:xlink="http://www.w3.org/1999/xlink" x="0px" y="0px"
	 viewBox="-800.7 1523.5 143.7 143.7" style="enable-background:new -800.7 1523.5 143.7 143.7;" xml:space="preserve">
<style type="text/css">
	.st0{fill:#25D366;}
	.st1{fill:#25D366;stroke:#FFFFFF;stroke-width:6;stroke-miterlimit:10;}
	.st2{fill:#FFFFFF;}
</style>
<g>
	<path class="st0" d="M-728.8,1667.1L-728.8,1667.1c-39.7,0-71.8-32.2-71.8-71.8v0c0-39.7,32.2-71.8,71.8-71.8h0
		c39.7,0,71.8,32.2,71.8,71.8v0C-657,1635-689.2,1667.1-728.8,1667.1z"/>
	<g>
		<path class="st1" d="M-763.1,1629.7l4.9-18c-3-5.3-4.6-11.3-4.6-17.3c0-19.2,15.6-34.7,34.7-34.7c9.3,0,18,3.6,24.6,10.2
			s10.2,15.3,10.2,24.6c0,19.2-15.6,34.7-34.7,34.7l0,0l0,0c-5.8,0-11.5-1.5-16.6-4.2L-763.1,1629.7z"/>
		<g>
			<path class="st2" d="M-737.9,1577.9c-0.7-1.6-1.5-1.6-2.2-1.7c-0.6,0-1.2,0-1.9,0s-1.7,0.2-2.6,1.2c-0.9,1-3.5,3.4-3.5,8.2
				c0,4.8,3.5,9.5,4,10.2c0.5,0.7,6.8,10.9,16.9,14.9c8.3,3.3,10,2.6,11.8,2.5c1.8-0.2,5.8-2.4,6.7-4.7c0.8-2.3,0.8-4.3,0.6-4.7
				c-0.2-0.4-0.9-0.7-1.9-1.2c-1-0.5-5.8-2.9-6.7-3.2c-0.9-0.3-1.6-0.5-2.2,0.5c-0.7,1-2.5,3.2-3.1,3.9c-0.6,0.7-1.2,0.7-2.1,0.2
				c-1-0.5-4.2-1.6-8-4.9c-3-2.6-4.9-5.8-5.5-6.8s0-1.5,0.4-2.1c0.8-1,2.1-2.7,2.5-3.4s0.2-1.2-0.1-1.7
				C-735.1,1584.7-737.1,1579.8-737.9,1577.9z"/>
		</g>
	</g>
</g>
</svg>
